# xmcd
#
# Track frame offsets:
#	150
#	10120
#	20204
#	31609
#	40512
#	52560
#	61908
#	72906
#	83089
#	92881
#	101126
#	109328
#	121697
#	132919
#	140508
#	149023
#
# Disc length: 2147 seconds
#
# Revision: 1
# Processed by: cddbd v1.5.2PL0 Copyright (c) Steve Scherf et al.
# Submitted via: EasyCDDAExtractor 10.0.2.1
#
DISCID=d2086110
DTITLE=Johnny Cash - The Legend Disk 3
DYEAR=2006
DGENRE=Country
TTITLE0=Ballad Of A Teenage Queen
TTITLE1=Get Rhythm
TTITLE2=Big River
TTITLE3=Katy Too
TTITLE4=Give My Love To Rose
TTITLE5=Luther Played The Boogie
TTITLE6=The Ways Of A Woman In Love
TTITLE7=I Was There When It Happened
TTITLE8=Rock Island Line
TTITLE9=Guess Things Happen That Way
TTITLE10=Country Boy (Rare Demo Version)
TTITLE11=The Next In Line
TTITLE12=Mean-Eyed Cat
TTITLE13=Come In Stranger (Rare Alternate Version)
TTITLE14=I Forgot To Remember To Forget
TTITLE15=Goodnight Irene (Rare Alternate Version)
EXTD=
EXTT0=
EXTT1=
EXTT2=
EXTT3=
EXTT4=
EXTT5=
EXTT6=
EXTT7=
EXTT8=
EXTT9=
EXTT10=
EXTT11=
EXTT12=
EXTT13=
EXTT14=
EXTT15=
PLAYORDER=
